<svg xmlns="http://www.w3.org/2000/svg" xml:space="preserve" viewBox="0 0 416.168 414.951"><path d="M407.431 13.994c-1.069.633-1.923 1.817-2.775 2.767q-1.038 1.831-2.078 3.659c-7.136 10.29-13.733 20.936-20.573 31.426A3372 3372 0 0 1 359.356 86.1c-15.171 22.646-30.812 44.967-45.862 67.688-6.084 9.183-11.807 18.511-17.372 28.01-2.702 4.61-5.782 8.976-8.699 13.447a335 335 0 0 0-4.071 6.388c-.326.523-.635 1.042-.964 1.551-1.849-1.813-3.681-3.639-5.318-5.656a28 28 0 0 1-1.343-1.799h.001c-1.099-1.092-2.14-2.234-2.964-3.553a93 93 0 0 1-3.151-5.471c-2.575-4.415-5.007-8.913-7.539-13.355-4.026-7.061-8.222-13.97-12.499-20.883-4.179-6.756-7.657-13.914-11.619-20.8-1.155-2.007-2.321-3.989-3.581-5.915-15.517-2.241-30.793-5.901-46.025-9.575-6.479-1.563-12.959-3.128-19.464-4.58-6.509-1.455-13.066-2.648-19.585-4.048-6.482-1.391-12.943-2.847-19.482-3.958-4.12-.699-8.276-1.316-12.352-2.259a521 521 0 0 0 13.214 22.047 830 830 0 0 1 4.795 7.635c1.354 2.192 2.978 4.393 3.807 6.854.967 2.87 1.144 5.891.941 8.896.289 4.157.481 8.322.705 12.483.226 4.21.494 8.415.906 12.611l.004.045c-2.734-6.842-5.451-13.689-8.042-20.593-2.368-6.307-4.876-12.543-7.411-18.785-1.218-2.997-2.373-6.01-3.582-9-3.116-1.255-6.185-2.62-9.267-3.958a1404 1404 0 0 1-33.214-11.745 125 125 0 0 1-3.907 2.636c-3.881 3.271-7.721 6.595-11.587 9.884a746 746 0 0 0-26.617 23.721c-8.95 8.378-17.809 16.851-26.747 25.24-.379.356-.749.716-1.125 1.074-.702.865-1.439 1.724-2.021 2.665 1.378-.157 2.799.099 4.207.175 3.971-.823 7.914-1.75 11.852-2.721 8.377-2.064 16.673-4.434 25.042-6.525 8.403-2.101 16.885-3.851 25.345-5.702 1.733-.38 3.486-.722 5.243-1.06-.383 2.313-3.736 69.395-3.773 70.606 1.705 6.172 3.661 12.281 5.405 18.438 1.077 3.802 1.96 7.653 3.02 11.459.818 2.938 1.706 5.86 2.37 8.837 1.328 4.397 2.675 8.788 4.053 13.167 4.014 12.747 8.709 25.252 13.052 37.888 4.337 12.622 7.95 25.469 11.752 38.255 1.333 4.483 2.897 8.882 4.473 13.277.521 1.297 1.041 2.595 1.584 3.883.468 1.112.957 2.213 1.444 3.314 1.47-.668 3.022-1.181 4.516-1.794 2.372-1.138 4.702-2.339 6.987-3.518 3.474-1.792 6.962-3.578 10.423-5.415a426 426 0 0 0 6.838 17.037 367 367 0 0 1 4.563 11.253c1.226 2.114 1.851 4.602 2.861 6.806l.117.253q.04-.009.081-.014a90 90 0 0 1 5.815-2.18q.5-.253 1.001-.502c9.833-4.86 19.936-9.194 29.82-13.957 22.628-10.903 45.319-21.678 68.03-32.407 6.818-.235 13.638-.485 20.449-.846 9.403-.497 18.784-1.29 28.196-1.637 6.116-.224 12.503.234 18.689-.357 1.641-.252 3.285-.489 4.916-.784a48 48 0 0 1 1.637-4.155c.063-.347.128-.691.203-1.031.448-2.021 1.046-4.006 1.66-5.981 1.192-3.826 2.415-7.675 3.978-11.368 1.027-2.43 2.208-4.858 3.27-7.33q3.901 1.893 7.822 3.756c4.483 2.132 8.968 4.261 13.422 6.452 1.511.745 3.012 1.524 4.511 2.309 1.333.484 2.616 1.076 3.887 1.697-.996-2.552-2.126-5.058-3.123-7.61-1.83-4.683-3.3-9.512-4.886-14.279a311 311 0 0 0-5.049-13.98c-1.356-3.5-2.664-7.029-3.613-10.659a348 348 0 0 1-1.339-3.875c.189-.126.351-.303.436-.516 1.685-4.25 2.911-8.643 4.721-12.864 1.908-4.447 3.82-8.894 5.748-13.331 2.838-6.536 5.886-12.981 9.02-19.383a164 164 0 0 1 6.998-15.151c.608-4.65 1.236-9.298 2.256-13.862.405-2.864.861-5.724 1.213-8.556 1.685-13.544 3.165-27.12 4.677-40.686 3.047-27.292 5.9-54.599 8.569-81.93.746-7.632 1.495-15.264 2.3-22.89.817-7.723 1.846-15.38 2.138-23.147.18-4.791.284-9.582.584-14.363q.059-.115.119-.229c-.127-.44-.262-.879-.418-1.315" style="fill:#fff"/><path d="M70.102 136.282c-9.325 7.917-18.207 16.319-27.836 23.88-.441.347-.277 1.115.285.686 9.792-7.473 19.141-15.578 28.244-23.871.677-.616-.021-1.265-.693-.695M75.998 127.187c-8.936 7.711-18.245 14.918-27.347 22.426-.43.354-.265 1.13.285.686 9.215-7.434 19.241-14.146 27.624-22.549.523-.525-.019-1.033-.562-.563M76.882 122.197c-9.822 7.298-19.245 15.157-28.347 23.335-.507.455.017.948.518.519 9.199-7.874 18.843-15.183 28.288-22.751.696-.559.461-1.787-.459-1.103M183.105 359.261c-2.504 4.94-6.343 9.047-9.24 13.743-3.197 5.183-5.777 10.692-8.273 16.239-.257.57.528.429.72.05 2.915-5.785 5.988-11.47 9.427-16.961 2.728-4.354 6.796-7.991 8.07-13.119.127-.517-.576-.207-.704.048M196.82 360.023c-6.717 9.208-13.143 18.596-18.749 28.533-.371.655.425.859.744.313 5.738-9.815 12.42-19.029 18.452-28.659.247-.391-.228-.485-.447-.187"/><path d="M407.431 13.994c-1.069.633-1.923 1.817-2.775 2.767q-1.038 1.831-2.078 3.659c-7.135 10.29-13.733 20.936-20.573 31.426A3372 3372 0 0 1 359.356 86.1c-15.169 22.646-30.812 44.967-45.862 67.688-6.084 9.183-11.807 18.511-17.372 28.01-2.702 4.61-5.782 8.976-8.699 13.447a340 340 0 0 0-4.071 6.388c-.326.523-.635 1.042-.964 1.551-1.849-1.813-3.681-3.639-5.318-5.656a28 28 0 0 1-1.343-1.799h.002c-1.1-1.092-2.141-2.234-2.965-3.553a93 93 0 0 1-3.151-5.471c-2.575-4.415-5.007-8.913-7.539-13.355-4.025-7.061-8.222-13.97-12.499-20.883-4.179-6.756-7.656-13.914-11.619-20.8-1.155-2.007-2.321-3.989-3.581-5.915-15.516-2.241-30.793-5.901-46.025-9.575-6.479-1.563-12.959-3.128-19.463-4.58-6.509-1.455-13.066-2.648-19.585-4.048-6.482-1.391-12.943-2.847-19.482-3.958-4.12-.699-8.276-1.316-12.352-2.259a521 521 0 0 0 13.214 22.047 830 830 0 0 1 4.795 7.635c1.354 2.192 2.978 4.393 3.807 6.854.967 2.87 1.144 5.891.941 8.896.289 4.157.481 8.322.705 12.483.226 4.21.494 8.415.906 12.611l.004.045c-2.734-6.842-5.451-13.689-8.042-20.593-2.368-6.307-4.876-12.543-7.411-18.785-1.218-2.997-2.373-6.01-3.582-9-3.116-1.255-6.185-2.62-9.267-3.958a1404 1404 0 0 1-33.214-11.745 125 125 0 0 1-3.907 2.636c-3.881 3.271-7.721 6.595-11.587 9.884a746 746 0 0 0-26.617 23.721c-8.95 8.378-17.809 16.851-26.747 25.24-.379.356-.749.716-1.125 1.074-.702.865-1.439 1.724-2.021 2.665 1.378-.157 2.799.099 4.207.175 3.971-.823 7.914-1.75 11.852-2.721 8.377-2.064 16.673-4.434 25.042-6.525 4.552-1.138 9.128-2.172 13.709-3.177.057.177.236.258.522.052.104-.074.203-.156.306-.232 3.602-.786 7.207-1.557 10.808-2.345 1.733-.38 3.486-.722 5.243-1.06-.383 2.313-3.736 69.395-3.773 70.606 1.705 6.172 3.661 12.281 5.405 18.438 1.077 3.802 1.96 7.653 3.02 11.459.818 2.938 1.706 5.86 2.37 8.837 1.328 4.397 2.675 8.788 4.053 13.167 4.014 12.747 8.709 25.252 13.052 37.888 4.337 12.622 7.95 25.469 11.752 38.255 1.333 4.483 2.897 8.882 4.473 13.277.521 1.297 1.041 2.595 1.584 3.883.468 1.112.957 2.213 1.444 3.314 1.47-.668 3.022-1.181 4.516-1.794 2.372-1.138 4.702-2.339 6.987-3.518 3.474-1.792 6.962-3.578 10.424-5.415a428 428 0 0 0 6.837 17.037 367 367 0 0 1 4.563 11.253c1.226 2.114 1.851 4.602 2.861 6.806l.117.253q.04-.009.081-.014a90 90 0 0 1 5.816-2.18q.5-.253 1-.502c9.833-4.86 19.936-9.194 29.82-13.957 22.628-10.903 45.319-21.678 68.03-32.407 6.818-.235 13.638-.485 20.449-.846 9.403-.497 18.784-1.29 28.196-1.637 6.116-.224 12.503.234 18.689-.357 1.641-.252 3.285-.489 4.917-.784.478-1.409 1.03-2.8 1.638-4.155.063-.347.127-.691.202-1.031.448-2.021 1.046-4.006 1.66-5.981 1.192-3.826 2.415-7.675 3.978-11.368 1.027-2.43 2.209-4.858 3.27-7.33q3.901 1.893 7.822 3.756c4.483 2.132 8.968 4.261 13.422 6.452 1.513.745 3.012 1.524 4.511 2.309 1.333.484 2.616 1.076 3.887 1.697-.996-2.552-2.126-5.058-3.123-7.61-1.83-4.683-3.3-9.512-4.886-14.279a311 311 0 0 0-5.049-13.98c-1.354-3.5-2.664-7.029-3.611-10.659a370 370 0 0 1-1.341-3.875c.189-.126.351-.303.436-.516 1.685-4.25 2.911-8.643 4.721-12.864 1.908-4.447 3.82-8.894 5.748-13.331 2.84-6.536 5.886-12.981 9.02-19.383a164 164 0 0 1 7-15.151c.606-4.65 1.236-9.298 2.254-13.862.405-2.864.861-5.724 1.213-8.556 1.685-13.544 3.165-27.12 4.677-40.686 3.047-27.292 5.9-54.599 8.569-81.93q.83-8.52 1.701-17.036.345-.28.692-.558c.358-.285.269-.882-.236-.566-.123.076-.243.157-.364.235.169-1.655.333-3.311.508-4.965.817-7.723 1.846-15.38 2.138-23.147.18-4.791.284-9.582.584-14.363l.119-.229c-.13-.44-.265-.879-.421-1.315M292.423 191.685c3.675-5.295 6.941-10.771 10.228-16.311 6.706-11.306 14.267-22.08 21.443-33.087 7.489-11.489 15.561-22.631 23.279-33.972a3211 3211 0 0 0 23.02-34.27c1.074-1.622 2.138-3.249 3.205-4.875-12.967 21.411-25.864 42.836-37.681 64.915-.259.484-.512.97-.772 1.454 1.664-3.848 3.404-7.662 4.691-11.655.196-.604-.6-.493-.742-.052-1.678 5.147-4.179 9.947-6.12 14.99-.114.297.021.419.208.42-6.67 12.581-13.189 25.243-19.737 37.89-3.433 6.63-7.147 13.169-10.298 19.938-2.707 5.814-4.854 12.385-9.399 17.085a2.5 2.5 0 0 0-.265.319c-.508-.534-1.025-1.061-1.54-1.591 1.203-4.343 2.011-8.834 3.029-13.207 1.306-5.603 2.719-11.192 4.491-16.667.134-.412-.401-.333-.506-.035-1.773 5.029-3.187 10.151-4.455 15.328-1.118 4.562-2.352 9.148-3.359 13.752-1.223-1.253-2.45-2.503-3.67-3.757a483 483 0 0 1 3.336-14.313c.539-.766 1.081-1.529 1.614-2.299m-8.948 12.432c.382-.391.729-.837 1.079-1.256.844-1.008 1.507-2.168 2.267-3.241q1.443-2.04 2.89-4.075c-1.161 3.882-2.464 7.822-3.146 11.816-.139-.145-.279-.286-.418-.432a121 121 0 0 0-2.742-2.75q.05-.041.07-.062m-10.073-7.292q.294.57.612 1.128c-3.109 2.459-5.794 5.309-8.524 8.221-3.051 3.252-6.266 6.34-9.496 9.413-5.776 5.494-11.885 10.976-16.469 17.541-.273.392.189.635.472.316 10.897-12.169 24.831-21.261 34.656-34.407 2.113 3.427 4.844 6.534 7.82 9.375 1.856 1.771 3.514 3.776 5.357 5.572 2.029 1.98 4.065 3.953 6.087 5.939 1.695 1.667 3.304 3.401 4.916 5.148 1.119 1.214 2.306 2.592 3.894 3.092l-1.973.553c-6.072 1.699-12.125 3.67-18.262 5.114a4810 4810 0 0 0-35.976 8.61c-5.322 1.295-10.577 2.974-15.77 4.721q-.452.16-.902.326c-1.331.497-2.629 1.063-3.937 1.609-1.991 2.439-4.04 4.84-5.906 7.361a43 43 0 0 0-2.325 3.841c-2.303 4.261-4.477 8.579-6.615 12.922-4.461 3.038-9.003 5.922-13.71 8.59-.97.549-1.951 1.079-2.935 1.603 1.877-2.797 3.029-6.255 4.47-9.242.988-2.049 2.039-4.075 3.078-6.1a111 111 0 0 1 3.508-6.354c.653-1.091 2.049-4.352 3.424-4.724.294-.081.861-.84.277-.869-1.409-.069-2.528 1.674-3.285 2.619-1.777 2.219-3.248 4.679-4.698 7.117a185 185 0 0 0-3.479 6.124c-1.089 2.005-2.108 4.047-3.116 6.096-.985 2.004-2.174 4.022-2.791 6.177-.064.224-.064.388-.027.513a4 4 0 0 0-.51.307q-.508.364-1.011.736-.117.058-.195.103c-.226-.206-.482-.586-.597-.715-.579-.655-1.23-1.246-1.836-1.876-.845-.877-1.573-1.847-2.126-2.915-.319-.35-.649-.688-1.002-.992.896 3.308 2.633 6.432 4.497 9.362 5.226-2.654 10.353-5.51 15.614-8.097a68 68 0 0 0 4.132-2.776c-4.383 8.771-9.053 17.39-13.774 25.986-5.031 9.158-9.8 18.492-15.147 27.469-2.602 4.368-5.288 8.685-7.778 13.12-.904 1.611-1.923 3.302-2.886 5.045.571-5.125 1.134-10.248 1.7-15.375 1.503-13.622 3.145-27.235 4.421-40.881.551-5.904.967-11.827 1.221-17.749.147-3.444.232-6.893.475-10.331.066-.22.084-.44.045-.651.164-2.143.397-4.281.754-6.409a39 39 0 0 1 .841-3.795 57 57 0 0 0-.07-2.489.7.7 0 0 0-.152.201c-1.27 2.689-2.173 5.473-2.839 8.316-1.727-4.634-3.635-9.201-5.214-13.891-2.187-6.491-4.711-12.891-7.105-19.309q-.197-.531-.398-1.061c2.04 1.104 4.414 1.71 6.584 2.329 4.037 1.151 8.094 2.187 12.219 2.969 11.103 2.107 22.447 4.316 33.767 4.604.505.012 1.194-.98.474-1.085-5.154-.757-10.239-1.935-15.347-2.947-5.393-1.069-10.838-1.852-16.257-2.763-4.22-.707-8.305-1.805-12.472-2.734-2.606-.583-5.39-1.162-7.992-2.071 3.986-.009 7.912-.574 11.879-1.227 5.28-.871 10.516-1.821 15.822-2.538 5.395-.727 10.767-1.623 16.165-2.327 5.36-.7 10.691-.98 15.908-2.493 5.046-1.464 9.958-3.563 14.727-5.752 5.109-2.347 10.338-4.412 15.594-6.406 4.947-1.876 9.9-3.686 14.944-5.275 1.488-.469 3.048-.953 4.55-1.562m-58.943 17.011c-2.273.243-4.55.445-6.8.747l-.312.044c1.757-1.958 3.353-4.095 4.955-6.137q1-1.278 2.001-2.553a62 62 0 0 0 2.516 4.526c-.835.947-1.63 1.917-2.33 2.932-.113.166-.104.333-.03.441m-2.196-6.922c-2.15 2.702-4.444 5.291-6.639 7.954q-2.28.323-4.555.665c4.257-4.062 7.77-8.886 11.301-13.673q.7 1.565 1.449 3.099-.78.978-1.556 1.955m-71.56-72.277c-1.541-2.98-3.695-5.63-5.593-8.382-2.314-3.354-4.435-6.836-6.793-10.167-2.947-4.159-5.861-8.344-8.651-12.608 2.068.574 4.143 1.132 6.231 1.648 11.688 2.896 23.514 5.266 35.256 7.928 11.875 2.693 23.707 5.589 35.639 8.021 5.955 1.215 11.954 2.109 17.959 3.027 2.711.414 5.42.836 8.12 1.319 2.682.48 5.524 1.435 8.277 1.49 1.251 1.986 2.488 3.972 3.599 6.002 3.948 7.212 7.236 14.802 11.525 21.816 4.101 6.707 8.154 13.393 12.049 20.22 3.838 6.727 7.67 13.457 11.897 19.947-1.056.392-2.134.76-3.248 1.102-1.842.563-3.668 1.18-5.486 1.826 1.404-1.31 2.821-2.61 4.062-4.077.342-.404-.062-.831-.416-.416-1.448 1.698-3.163 3.127-4.706 4.733a.5.5 0 0 0-.112.181c-2.46.891-4.905 1.826-7.349 2.744-.322.121-.642.25-.964.375 1.463-1.774 2.864-3.628 4.587-5.092 1.764-1.499 3.678-3.238 4.462-5.48.243-.695-.679-.561-.862-.061-.934 2.577-3.352 3.919-5.091 5.859-1.632 1.819-3.354 3.604-4.928 5.485-6.847 2.734-13.604 5.938-20.576 8.362 4.65-4.008 8.274-9.471 12.366-13.916 4.657-5.061 10.594-9.172 14.284-15.056.371-.594-.375-.772-.686-.287-3.679 5.734-9.579 9.809-14.249 14.689-2.507 2.62-4.811 5.429-7.201 8.154-2.264 2.58-4.724 4.903-7.17 7.298a75 75 0 0 1-4.012 1.142c-2.581.653-5.227 1.015-7.885 1.307.854-.693 1.651-1.48 2.411-2.315q.115.18.229.359c.509.767 1.766-.283 1.48-1.014-.118-.302-.242-.601-.361-.901.875-1.049 1.723-2.119 2.583-3.123 2.217-2.593 4.436-5.183 6.756-7.684 4.767-5.135 9.971-9.826 14.614-15.09.303-.345-.04-.705-.358-.359-4.561 4.966-9.46 9.604-14.256 14.339-2.42 2.392-4.619 5.019-6.847 7.585-.936 1.081-1.946 2.142-2.946 3.215a185 185 0 0 0-2.227-5.141c1.443-1.801 2.914-3.577 4.461-5.295 5.057-5.618 10.87-10.53 15.019-16.92.271-.42-.258-.541-.487-.204-4.365 6.393-10.42 11.328-15.619 16.998a104 104 0 0 0-3.816 4.435q-.738-1.628-1.481-3.256c1.707-2.275 3.448-4.513 5.311-6.618 6.598-7.461 14.252-13.927 20.286-21.893.341-.449-.271-.584-.545-.23-6.226 8.01-14.09 14.498-20.883 21.99-1.633 1.803-3.185 3.677-4.702 5.578a254 254 0 0 1-2.773-6.26c-2.759-6.518-5.395-13.087-8.228-19.573-2.887-6.61-5.991-13.129-8.958-19.703-2.251-4.988-4.892-9.96-6.929-15.088 5.222-.377 10.453-1.695 15.586-2.39 6.92-.933 13.985-1.372 20.695-3.432.378-.116.831-.957.17-.86-6.301.907-12.623 1.49-18.953 2.141-6.098.626-12.138 2.177-18.259 2.528a59 59 0 0 1-.632-1.842c-.204-.636-1.262.204-1.106.758q.16.571.334 1.141c-6.341.188-12.804-.388-19.143-.564-3.282-.091-6.56-.273-9.842-.34-1.563-.031-3.125-.033-4.687-.092-1.444-.054-2.943.578-4.187-.479-.231-.198-.661.233-.469.466 1.279 1.545 3.877 1.167 5.666 1.343 3.216.313 6.466.503 9.692.672 6.997.364 13.993.708 20.992 1.023.877.04 1.756.039 2.635.009 1.784 5.253 4.212 10.406 6.366 15.456 2.843 6.663 5.773 13.292 8.684 19.925 2.846 6.485 5.46 13.069 8.183 19.605 1.087 2.608 2.162 5.276 3.31 7.915q-1.223 1.577-2.444 3.156c-3.204 4.138-6.565 8.094-9.992 12.041-2.37.362-4.74.729-7.111 1.077-10.321 1.52-20.423 4.513-30.815 5.53a1942 1942 0 0 0-3.008-7.953c2.641-2.377 4.072-5.825 5.699-8.921 2.358-4.488 5.223-8.851 7.899-13.158 2.604-4.196 5.579-8.146 8.471-12.146a353 353 0 0 0 4.512-6.365 81 81 0 0 0 2.141-3.237q.404-.656.802-1.316a.93.93 0 0 0 .098-.46l.26-.225c.174-.149.028-.422-.17-.256-1.159.962-2.022 2.711-2.88 3.944-1.492 2.142-3.042 4.241-4.599 6.335-2.949 3.968-6.016 7.859-8.767 11.969-2.784 4.159-5.313 8.488-7.938 12.748-2.053 3.331-3.683 6.843-5.917 10.058q-1.785-4.69-3.587-9.374c.678-1.099 1.274-2.262 1.859-3.314 1.597-2.878 3.122-5.793 4.912-8.558 3.742-5.784 7.669-11.486 11.643-17.113.315-.446-.265-.564-.526-.221-4.073 5.334-7.868 10.849-11.788 16.292-1.83 2.542-3.325 5.32-4.87 8.037-.584 1.027-1.259 2.041-1.932 3.057-.782-2.03-1.558-4.063-2.346-6.092 1.847-2.82 3.357-5.949 4.961-8.877 1.989-3.628 3.944-7.272 5.93-10.901.177-.323-.31-.34-.445-.102-2.063 3.609-4.101 7.235-6.163 10.847-1.511 2.646-3.231 5.245-4.71 7.936q-1.032-2.657-2.069-5.31c1.968-3.071 3.689-6.357 5.605-9.447 2.146-3.466 4.247-6.957 6.105-10.588.181-.354-.331-.271-.46-.032-2.033 3.781-4.34 7.394-6.673 10.995-1.651 2.549-3.569 5.134-5.049 7.861q-1.237-3.15-2.489-6.291c-.125-3.839-.937-7.772-1.307-11.578-.409-4.205-.628-8.425-.834-12.643-.205-4.197-.384-8.394-.686-12.585-.277-3.846-.63-7.296-2.426-10.768m-89.345 26.455c3.696-2.592 6.979-5.798 10.391-8.726 4.916-4.218 10.364-7.951 14.876-12.613.491-.508.133-1.335-.543-.819-4.797 3.656-9.412 7.632-13.954 11.602-4.118 3.598-7.891 7.775-12.363 10.948q-.321.078-.641.158c-8.396 2.113-16.699 4.594-25.078 6.778q-5.911 1.54-11.836 3.03c8.975-8.434 17.863-16.96 26.834-25.399a957 957 0 0 1 27.011-24.477c4.043-3.525 7.993-7.151 11.999-10.715-.13 8.287 1.336 16.631 2.342 24.809.35 2.845.657 5.691.94 8.541-2.698 2.465-5.554 4.708-8.356 7.056-2.383 1.996-4.501 4.29-6.763 6.418a564 564 0 0 0-14.859 3.409m16.559-3.778c1.889-1.712 3.727-3.487 5.696-5.096 2.612-2.134 5.627-3.98 7.866-6.54l.083.854c.569 2.444 1.12 4.888.99 7.42-.006.125-.091.193-.208.208l-.096.015.007.087-.321.067.009-.108c-.5.084-.993.2-1.487.296l-.023.132c-4.171.888-8.346 1.766-12.516 2.665m66.796 211.11c-3.148 1.676-6.33 3.227-9.538 4.726-.966-3.219-2.191-6.381-3.272-9.483-2.188-6.283-4.001-12.672-5.861-19.058-3.724-12.789-7.633-25.477-12.077-38.037-4.479-12.657-8.863-25.303-12.779-38.149-3.911-12.825-7.771-25.666-12.046-38.378-.236-.702-.467-1.406-.701-2.108l.059-.511c.503-4.265.783-8.554.982-12.842.41-8.861.27-17.735.386-26.601.061-4.567.392-9.138.593-13.701.174-3.946.175-7.936.613-11.861.206-1.847.443-3.691.637-5.538l.759-.148c.294 3.472.582 6.945.891 10.417.94 10.547 2.057 21.078 3.247 31.599l.133 1.192c-1.027 5.884-5.077 10.505-6.563 16.194-.2.767.855.311 1.047-.07 2.097-4.16 4.834-8.793 5.804-13.541l.276 2.477c.219 1.057.416 2.118.605 3.181-2.175 5.45-5.848 10.672-6.61 16.559-.105.813.93.274 1.067-.208 1.465-5.167 3.904-9.878 5.804-14.857.459 2.722.856 5.453 1.269 8.182-1.938 4.274-4.065 8.719-5.287 13.255-.17.63.717.268.875-.061 1.824-3.793 3.085-7.896 4.618-11.837q.233 1.514.483 3.022c.524 3.137 1.098 6.267 1.606 9.406.939 2.646 1.956 5.266 2.994 7.864a269 269 0 0 0 2.79 6.374c.046.101.008.194-.057.253q.825 1.919 1.675 3.828c-.539 3.081-1.828 6.045-2.826 8.998-1.034 3.057-2.098 6.2-2.758 9.359-.144.689.784.309.95-.063 1.326-2.986 1.984-6.257 2.935-9.373.774-2.532 1.735-5.086 2.243-7.704 1.17 2.616 2.357 5.225 3.536 7.837-.862 2.169-1.918 4.268-2.715 6.464-1.124 3.097-2.233 6.313-3.049 9.5-.176.69.752.252.925-.063 1.689-3.083 2.271-6.79 3.402-10.097.565-1.652 1.268-3.22 1.882-4.819a237 237 0 0 1 1.89 4.325c-.784 2.512-1.767 4.957-2.729 7.405-1.005 2.558-2.247 5.236-2.632 7.975-.101.717.835.361.998-.067 1.064-2.816 1.896-5.718 2.958-8.539.697-1.853 1.35-3.711 1.9-5.605q.644 1.53 1.276 3.062c-.46 2.878-2.079 5.746-2.955 8.499-1.038 3.26-1.883 6.584-2.815 9.875-.206.726.87.361 1.048-.071 1.317-3.204 2.061-6.576 3.044-9.892.663-2.232 1.748-4.458 2.357-6.751 1.045 2.561 2.076 5.129 3.11 7.694-.71 2.499-2.42 5.033-3.22 7.234-1.493 4.103-2.738 8.395-3.729 12.645-.225.963 1.148.486 1.367-.092 1.77-4.652 2.637-9.609 4.281-14.312.487-1.392 1.247-2.767 1.828-4.174a870 870 0 0 0 3.533 8.59c-1.105 3.23-2.438 6.383-3.698 9.554-1.367 3.439-2.822 7.103-3.042 10.831-.045.774 1.101.046 1.206-.381.993-4.007 2.073-7.87 3.553-11.734.886-2.314 1.781-4.609 2.528-6.959q.955 2.282 1.915 4.563c-.212.108-.419.345-.413.552.093 2.772-1.604 5.436-2.435 8.028-.856 2.673-1.778 5.285-2.915 7.854-.356.805.731.588 1.002.07 1.325-2.535 2.14-5.271 2.976-7.996.746-2.434 2.166-4.826 2.249-7.405l2.17 5.15c-.5 2.913-2.153 5.844-2.981 8.556a972 972 0 0 1-3.969 12.733c-.239.75.644.518.885.064 2.117-3.985 2.92-8.692 4.135-13.003.64-2.27 1.857-4.673 2.453-7.106q1.026 2.444 2.047 4.889a.6.6 0 0 0-.159.299c-1.233 7.166-3.483 14.074-5.288 21.103-.197.767.917.283 1.066-.209 1.973-6.469 3.848-13.003 5.015-19.674q1.407 3.378 2.79 6.764c-1.075 2.896-2.138 5.895-2.929 8.86-.965 3.619-1.603 7.305-3.027 10.789-.26.64.587.48.791.057 1.601-3.335 2.609-6.906 3.605-10.458.584-2.081 1.896-4.425 2.576-6.747q.213.537.428 1.071c-.794 1.972-.979 4.261-1.595 6.301-.724 2.398-1.688 4.722-2.339 7.141-.67 2.485-1.21 5-1.79 7.507-.234 1.013-.668 2.132-.717 3.169-.008.162-.018.573-.06.903-.123.084-.235.217-.25.306-.038.219-.072.333-.048.535.025.215.252.285.433.189.695-.365.825-1.442.986-2.132.673-2.865 1.725-5.697 2.545-8.526.907-3.128 2.058-6.14 3.112-9.218.298-.87.704-1.898 1.006-2.954a661 661 0 0 1 3.711 9.678 1.3 1.3 0 0 0-.337-.249c-.248-.129-.577.165-.661.374-.622 1.546-.884 3.23-1.358 4.848-.6 2.05-1.275 4.006-1.667 6.11-1.224 6.577-2.865 13.058-3.725 19.701-.089.691.852.281.94-.184 1.297-6.944 3.207-13.755 4.698-20.656.47-2.179 1.356-4.249 2.012-6.378.209-.678.538-1.642.514-2.458.457 1.224.906 2.45 1.358 3.675-.703 1.666-.911 3.602-1.191 5.332-.423 2.617-.931 5.219-1.354 7.836-.755 4.662-.947 9.571-3.21 13.828-.229.433.39.417.576.134 2.527-3.859 3.131-8.645 3.934-13.091.454-2.519 1.01-5.014 1.448-7.535.228-1.317.467-2.63.743-3.938q1.353 3.71 2.682 7.428a240 240 0 0 1-1.727 5.781c-.892 2.854-1.045 5.934-1.73 8.843-.168.714.859.272.99-.193.876-3.11 1.246-6.368 2.341-9.416.335-.933.657-1.86.919-2.799q1.236 3.466 2.461 6.936a537 537 0 0 0 3.03 8.369c-3.245 1.742-6.44 3.589-9.671 5.308m17.052 5.246a314 314 0 0 1-3.741-9.516l.048-.027q-.478-1.228-.928-2.472l-.038.021c-3.149-8.531-6.063-17.151-9.183-25.693-4.712-12.897-10.037-25.488-15.311-38.159-5.198-12.488-9.937-25.22-15.539-37.532q-1.079-2.369-2.164-4.735a.14.14 0 0 0-.037-.082c-3.57-7.796-7.143-15.595-10.267-23.582a147 147 0 0 1-1.877-5.101c-.04-4.342-1.162-8.729-1.83-12.979-.796-5.061-1.246-10.194-1.824-15.284-1.195-10.522-2.302-21.057-3.256-31.605-.322-3.559-1.6-18.744-1.863-21.52-.44-2.768-.878-5.532-1.235-8.302-.97-7.509-2.1-15.02-2.389-22.59-.17-1.574-.334-3.148-.478-4.724 2.245.943 4.488 1.887 6.77 2.763 5.258 2.022 10.432 4.247 15.691 6.255 3.971 1.518 14.696 4.955 18.018 6.138.526 1.647 1.015 3.313 1.581 4.936 1.162 3.326 2.433 6.617 3.676 9.914 4.676 12.406 9.103 24.922 14.215 37.157 4.04 9.674 7.869 19.426 11.603 29.215-.063.128-.13.255-.189.386-.249.553.165.699.559.589 5.884 15.458 11.537 31.005 17.403 46.472 1.619 4.271 3.377 8.484 4.842 12.814.082.24.215.393.376.487-.783 6.083-.931 12.307-1.579 18.339-1.452 13.531-2.82 27.068-4.346 40.593-2.569 22.77-4.908 45.58-8.235 68.253-2.586-6.932-5.698-13.717-8.473-20.429m34.538 13.034c-6.364 2.99-12.751 5.954-18.985 9.191 3.504-6.522 7.637-12.652 11.823-18.751 4.013-5.844 8.35-11.545 11.659-17.831.312-.593-.515-.528-.771-.178-4.319 5.921-8.324 12.088-12.41 18.173-4.081 6.073-7.923 12.318-11.183 18.875a.4.4 0 0 0-.053.202c-.548.287-1.1.57-1.645.864q-.798.424-1.597.853c1.251-7.997 2.157-16.075 3.148-24.043 1.139-1.737 2.619-3.386 3.557-4.821 2.553-3.91 5.786-7.711 7.374-12.143.237-.663-.53-.574-.814-.188-3.03 4.091-5.536 8.602-8.332 12.86-.431.655-.977 1.404-1.53 2.203.552-4.465 1.079-8.935 1.592-13.405a1.4 1.4 0 0 0 .192-.229c.496-.754.938-1.537 1.354-2.335 7.139.885 14.691-.068 21.777-.446 5.295-.282 10.591-.485 15.888-.69-7.05 10.446-13.609 21.209-20.928 31.478-.105.148-.135.271-.116.361m72.114-34.226c-9.585 4.519-19.196 8.977-28.798 13.44a1030 1030 0 0 0-13.602 6.459 171 171 0 0 1 6.317-9.208c2.075-2.824 3.535-6.048 5.691-8.814.177-.227-.115-.377-.286-.19-2.219 2.469-3.842 5.388-5.922 7.966-2.579 3.193-4.726 6.806-6.842 10.315-.122.201-.132.36-.08.471a5210 5210 0 0 0-9.811 4.76c4.852-6.839 11.182-12.585 15.156-20.028.318-.597-.534-.565-.792-.183-4.849 7.173-10.975 13.412-15.538 20.781a2241 2241 0 0 1-11.361 5.498 667 667 0 0 1-5.058 2.398c7.451-10.045 14.63-20.396 20.749-31.313 3.099-.121 6.198-.242 9.296-.384 8.291-.381 16.573-.864 24.867-1.188 4.068-.159 8.134-.371 12.191-.718 1.418-.121 2.896-.16 4.357-.294q-.267.118-.534.232m83.099-25.711c-1.688 3.598-2.876 7.499-4.144 11.263a84 84 0 0 0-1.681 5.612c-.187.708-.411 1.45-.56 2.196-6.896.292-13.784.159-20.687.47-1.639.073-3.276.161-4.913.255-14.639 2.156-29.458 2.764-44.243 3.244 5.842-2.045 16.201-6.561 17.55-7.151 7.577-3.327 15.396-6.218 23.065-9.336 8.783-3.566 18.514-6.188 26.351-11.668.697-.488.818-2.047-.34-1.487-7.998 3.869-16.519 6.366-24.734 9.708-7.91 3.219-16 6.246-23.762 9.801-3.898 1.783-7.768 3.625-11.64 5.463-2.146 1.021-4.279 2.072-6.422 3.098-.717.343-1.423.712-2.14 1.058l-.054.01c1.564-9.022 2.739-18.109 4.172-27.152.769-4.855 1.62-9.666 2.67-14.47 1.06-4.848 1.916-9.754 2.026-14.723.015-.712-1.092-.101-1.155.364-1.338 9.912-4.595 19.477-6.231 29.352-.817 4.941-1.4 9.909-2.15 14.856-.606 4.005-1.333 8.067-1.659 12.126-5.976.805-12.165.884-18.125 1.115-8.301.325-16.589.814-24.886 1.194-15.811.727-31.6 1.762-47.402 2.563.429-.88.85-1.765 1.298-2.634 1.187-2.302 2.481-4.543 3.801-6.769 2.73-4.601 5.601-9.115 8.381-13.685 5.536-9.102 10.413-18.621 15.541-27.956 5.26-9.577 10.234-19.284 14.881-29.174 2.256-4.798 4.295-9.686 6.42-14.543 1.084-2.475 3.041-4.807 4.249-7.342 2.79 1.507 5.552 3.064 8.413 4.479-1.666 2.193-4.008 5.216-4.483 5.718-2.642 2.787-4.791 6.339-6.972 9.49-2.338 3.379-4.491 6.895-6.568 10.438-.271.463.292.6.525.222 4.417-7.126 9.219-14.117 14.59-20.56 1.311-1.572 2.595-3.195 3.761-4.884q1.898.915 3.807 1.814c-2.457 3.8-5.569 7.072-8.395 10.59-3.651 4.545-6.357 9.917-9.639 14.732-.387.566.342.727.665.279 3.435-4.772 6.373-9.957 10.013-14.575 2.747-3.482 6.314-6.544 8.07-10.689 1.959.923 3.923 1.843 5.881 2.773-2.296 2.991-5 5.703-7.412 8.587-3.701 4.427-7.035 9.127-10.257 13.91-.359.533.328.691.626.262 3.423-4.901 6.962-9.72 10.909-14.219a428 428 0 0 1 5.155-5.797c.663-.727 1.32-1.493 1.873-2.319q1.591.76 3.172 1.535c-.163.392-.292.835-.481 1.13-.452.704-1.096 1.338-1.669 1.948a104 104 0 0 0-10.789 13.536c-.458.688.425.894.804.339 2.759-4.047 5.908-7.781 9.108-11.48 1.227-1.416 3.258-3.135 3.725-5.126.938.465 1.874.931 2.803 1.41q.705.364 1.409.733c1.073.771 2.051 1.659 2.84 2.842-1.365 1.236-2.536 2.746-3.602 4.147-2.298 3.022-4.244 6.294-6.958 8.98-.494.487.034 1.008.534.532 2.251-2.133 4.055-4.646 5.889-7.133 1.647-2.23 3.422-4.123 5.351-5.97l-.001.001c-.176.27.155.327.309.13q.326-.413.665-.815 1.86 1.033 3.707 2.092c-.553.612-1.285 1.111-1.878 1.684-.921.89-1.664 1.912-2.411 2.95-1.956 2.708-3.653 5.595-5.607 8.305-.45.623.374.801.743.313 2.174-2.872 4.095-5.923 6.27-8.794.734-.968 3.027-2.799 3.27-4.232q2.026 1.166 4.038 2.354c-1.426 1.899-2.92 3.731-4.379 5.619-1.934 2.499-3.173 5.374-5.365 7.713-.419.446.04.918.474.475 2.132-2.177 3.708-4.761 5.376-7.293 1.4-2.121 3.345-3.892 4.718-6.028 1.131.67 2.258 1.349 3.384 2.026-.012.012-.024.018-.035.028-2.138 2.31-3.79 5.056-5.694 7.554-.429.561.339.731.685.288 1.898-2.434 3.833-4.917 5.484-7.525.014-.023.019-.043.028-.064 2.325 1.4 4.642 2.813 6.958 4.227-1.827 2.13-3.34 4.547-5.284 6.582-.436.458.039.939.489.49 2.02-2.017 3.865-4.286 5.597-6.585q3.202 1.96 6.409 3.902c.56.338 1.125.668 1.687 1.004a36 36 0 0 0-5.193 7.234c-.304.561.536.589.772.177 1.462-2.557 3.341-4.739 5.265-6.908a417 417 0 0 0 8.004 4.619c-1.848 3.1-3.455 6.344-5.837 9.093-.446.514.067 1.056.533.533 2.441-2.736 4.411-5.919 5.991-9.244 1.46.82 2.927 1.626 4.394 2.434-1.155 2.047-2.224 4.146-3.539 6.107-.438.652.399.839.765.32a55 55 0 0 0 3.666-5.935c5.88 3.222 11.805 6.358 17.73 9.512 8.653 4.604 17.379 9.012 26.177 13.294-1.467 3.062-3.138 6.042-4.54 9.031m-86.277-59.217c.736.394 1.465.798 2.199 1.199a12 12 0 0 0-.752.607 10.6 10.6 0 0 0-1.447-1.806m109.201 41.049c1.764 4.575 8.095 19.185 6.459 18.383-5.31-2.605-13.719-7.778-19.069-10.304-2.5-.949-4.947-2.03-7.162-3.448-10.036-4.932-19.874-10.265-29.73-15.544-8.192-4.389-16.293-8.851-24.307-13.504.261-.42-.112-.746-.543-.372l-.04.036a557 557 0 0 1-8.993-5.346c-11.14-6.772-22.289-13.353-34.097-18.897-3.715-1.744-7.458-3.431-11.197-5.127.026-.244-.043-.413-.283-.415-.079 0-.201.065-.294.154q-1.49-.675-2.977-1.354c-1.673-.765-3.318-1.747-4.995-2.662q.232-.078.459-.147c5.755-1.748 11.614-3.485 17.504-4.716 12.226-2.556 24.409-5.307 36.615-7.955 6.116-1.327 12.162-3.173 18.202-4.81q9.053-2.456 18.106-4.913a7176 7176 0 0 1 18.19-4.912c.471-.127.952-.246 1.435-.364.611 1.994 2.689 8.913 5.444 18.051-.058.133-.049.276.083.274 6.989 23.157 18.249 60.261 21.19 67.892m40.341-281.641c-.461 7.293-1.241 14.56-2.087 21.82-3.413 3.979-7.512 7.069-11.407 10.576-2.331 2.099-4.288 4.837-6.36 7.192a269 269 0 0 1-6.84 7.511c-.436.46.031.932.489.49 2.443-2.351 4.738-4.826 7.012-7.339 2.267-2.506 4.41-5.323 6.949-7.553 3.286-2.888 7.211-5.517 9.941-9.024-.376 3.188-.76 6.375-1.133 9.563-4.548 3.384-8.668 7.45-12.579 11.475-4.994 5.136-9.574 10.667-14.038 16.262-.352.442.265.572.546.229 4.496-5.477 9.146-10.814 14.074-15.907 3.734-3.861 7.726-7.354 11.847-10.743a663 663 0 0 0-.764 6.863c-1.366 12.955-2.669 25.915-3.981 38.874-13.987 10.347-27.114 22.213-38.708 35.165-.317.355.042.732.373.373 11.657-12.613 24.837-23.365 38.187-34.082a6975 6975 0 0 1-2.662 25.837c-.184-.046-.427.005-.668.208-4.485 3.767-9.225 7.231-13.591 11.136-4.317 3.861-8.23 8.279-12.85 11.78-.449.34-.285 1.103.286.686 4.532-3.309 8.184-7.602 12.554-11.101 4.734-3.791 9.768-7.458 14.159-11.651-.518 4.893-1.04 9.785-1.577 14.677-1.62 14.717-3.437 29.413-5.03 44.133-.759 7.006-1.809 13.976-2.58 20.98a29 29 0 0 0-.147 2.142 1534 1534 0 0 0-6.094 12.339c-4.192 8.599-8.215 17.274-11.881 26.112-1.829 4.409-3.61 8.852-5.268 13.327-1.13 3.05-2.417 6.509-2.883 9.886a256 256 0 0 1-1.711-5.401c-1.626-5.366-3.213-10.745-4.869-16.101-1.435-4.643-3.285-9.193-4.692-13.848 5.611-1.576 9.91-6.429 14.907-9.199.434-.241.62-1.19-.059-.861-5.234 2.552-9.387 7.719-15.052 9.362-.146-.503-.293-1.007-.427-1.513-.179-.674-.349-1.354-.519-2.034 7.748-3.905 14.347-9.874 21.605-14.57.427-.275.446-1.198-.194-.857-7.742 4.117-13.927 10.594-21.541 14.91q-.392-1.59-.776-3.193a808 808 0 0 1-1.472-4.479 2.8 2.8 0 0 0 .518-.26.5.5 0 0 0 .19-.207l.124-.053c.487-.111.979-.714 1.356-1.013 1.319-1.041 2.738-1.948 4.168-2.824 3.195-1.956 6.495-3.747 9.712-5.668 3.231-1.933 6.497-3.806 9.743-5.714 3.451-2.028 7.107-3.944 10.279-6.396.438-.338.57-1.407-.23-1.011-3.875 1.924-7.522 4.418-11.243 6.624-3.936 2.333-7.855 4.694-11.723 7.139-3.506 2.216-7.15 4.12-10.43 6.686-.815.637-1.564 1.247-2.431 1.794-.08.049-.171.119-.257.199-1.313-4.069-2.579-8.152-3.736-12.268-4.123 1.312-8.349 2.281-12.537 3.381-4.134 1.087-8.268 2.179-12.441 3.096l-9.885 2.77c.151-.277.187-.595-.001-.842-1.043-1.377-2.438-2.482-3.549-3.824-1.357-1.637-2.679-3.291-4.077-4.895a98 98 0 0 0-1.724-1.922c.126-.088.252-.189.378-.318 3.535-3.641 5.797-8.233 7.886-12.803a318 318 0 0 1 7.359-15.021c6.226-11.93 12.364-23.903 18.584-35.835 12.374-23.734 25.472-46.961 39.312-69.87 8.397-13.898 16.857-27.756 25.049-41.776 3.933-6.731 7.841-13.515 11.58-20.389-.177 2.252-.319 4.511-.463 6.768"/><path d="M193.527 173.644c-6.262 6.443-11.488 13.694-16.396 21.196-5.025 7.684-10.105 15.414-14.865 23.263-.38.627.354.756.705.296 5.417-7.102 9.739-15.107 14.565-22.614 4.908-7.635 10.176-15.104 16.363-21.767.327-.352-.033-.722-.372-.374M186.728 193.13c-3.132 4.362-6.39 8.627-9.706 12.849-3.286 4.185-7.159 8.2-10.006 12.691-.302.478.204.733.56.373 3.596-3.621 6.58-8.076 9.711-12.103 3.455-4.443 6.839-8.941 10.085-13.541.383-.542-.332-.706-.644-.269M190.922 199.25c-1.981 3.248-4.73 5.854-7.314 8.61-2.391 2.553-4.516 5.511-6.617 8.305-.29.384.099.799.484.485 2.906-2.351 4.692-5.924 7.175-8.686 2.441-2.717 5.01-5.289 6.858-8.47.299-.514-.328-.669-.586-.244M198.724 200.096c-4.172 5.338-9.279 10.006-12.89 15.773-.417.667.399.843.765.321 3.892-5.557 8.628-10.423 12.651-15.875.325-.438-.261-.559-.526-.219M254.575 190.828c-4.451 4.286-9.719 8.23-13.235 13.372-.395.579.273.933.697.465 4.195-4.618 8.607-8.942 12.968-13.406.391-.4-.028-.819-.43-.431M308.928 166.944c-.341 1.812-.957 3.51-1.732 5.178-.681 1.462-1.039 3.078-1.509 4.623-1.099 3.603-2.28 7.182-3.369 10.787-1.017 3.366-1.718 6.823-2.496 10.25-.762 3.357-2.007 6.641-2.684 9.997-.118.592.628.212.777-.052 1.57-2.814 2.189-6.316 2.88-9.433.761-3.419 1.423-6.857 2.326-10.243.958-3.592 2.131-7.13 3.195-10.691 1.038-3.472 2.612-6.935 3.165-10.525.061-.402-.502-.166-.553.109M315.5 158.355c-1.012 5.32-3.531 10.054-5.084 15.192-1.59 5.254-2.551 10.639-4.489 15.795-.305.813.759.625 1.002.07 2.148-4.879 2.992-10.211 4.329-15.341 1.403-5.391 4.027-10.324 4.976-15.859.091-.53-.664-.223-.734.143M326.648 141.325c-3.764 8.233-7.592 16.722-9.319 25.66-.137.705.847.268.963-.189 2.239-8.777 5.376-17.133 9.004-25.424.225-.513-.484-.404-.648-.047M331.616 133.09c-.435 3.069-1.876 5.862-2.827 8.786-1.153 3.55-2.693 7.003-3.89 10.549-.226.667.621.515.813.058 1.457-3.454 2.494-7.068 3.883-10.55 1.125-2.816 2.353-5.955 2.728-8.981.063-.517-.656-.223-.707.138M393.182 103.527c-5.076 3.932-9.303 8.816-14.542 12.572-.355.255-.227.835.22.526 5.279-3.652 9.984-8.183 14.716-12.504.391-.354.082-.963-.394-.594M390.224 125.083c-9.542 6.848-17.008 16.177-26.151 23.519-.309.247-.201.792.202.487 9.36-7.085 17.497-15.67 26.46-23.238.528-.449.113-1.216-.511-.768M387.751 168.451c-5.519 3.689-10.943 7.827-16.034 12.09-4.716 3.949-8.656 8.854-13.928 12.113-.48.295-.306 1.011.276.666 5.031-2.962 8.999-7.383 13.367-11.186 5.326-4.635 11.342-8.479 16.759-13.019.463-.388.107-1.03-.44-.664M387.587 181.275c-.51.142-.751.3-1.105.705q-.024.031-.042.064c-1.904 1.432-3.72 2.979-5.69 4.339-2.412 1.662-4.875 3.245-7.247 4.967-5.445 3.952-10.705 8.149-16.135 12.122-.457.334-.292 1.092.286.686 5.486-3.852 10.822-7.91 16.255-11.834 2.569-1.855 5.247-3.548 7.864-5.332 2.138-1.457 4.503-3.014 6.084-5.096.179-.238.135-.736-.27-.621M384.133 190.891c-4.32 1.411-8.37 5.088-11.799 7.964-4.008 3.364-7.85 6.927-12.031 10.08-.385.292-.243.944.244.588 3.877-2.848 7.477-6.038 11.174-9.109a98 98 0 0 1 6.018-4.648c2.112-1.494 4.472-2.595 6.573-4.08.395-.279.461-1.004-.179-.795"/></svg>